<svg width="21" height="20" viewBox="0 0 21 20" fill="none" xmlns="http://www.w3.org/2000/svg">
    <path d="M20.9 17.2L16.8 13.1C17.2 12.1 17 10.8 16.1 10C15.2 9.1 13.9 8.9 12.8 9.4L14.7 11.3L13.3 12.7L11.3 10.7C10.8 11.8 11 13.1 11.9 14.1C12.8 15 14 15.2 15 14.8L19.1 18.9C19.3 19.1 19.6 19.1 19.7 18.9L20.7 17.9C21 17.6 21 17.3 20.9 17.2ZM11 16H0V14C0 11.8 3.6 10 8 10C8.5 10 9 10 9.4 10.1C9.1 10.7 9 11.3 9 12C9 13.6 9.8 15.1 11 16ZM8 0C5.8 0 4 1.8 4 4C4 6.2 5.8 8 8 8C10.2 8 12 6.2 12 4C12 1.8 10.2 0 8 0Z" fill="#312B3C"/>
</svg>
